PathFileType	4	(X/Y/Z)	c:/Users/goper/Files/vsCode/490R/osim_files/C07/C07_Static.trc
DataRate	CameraRate	NumFrames	NumMarkers	Units                	OrigDataRate	OrigDataStartFrame	OrigNumFrames
250.00	250.00	9	36	mm	250.0	583	1554
                Frame#	Time	LPSIS			LASIS			LTH1			LTH2			LTH3			LTH4			LLFE			LMFE			LSH1			LSH2			LSH3			LSH4			LLMAL			LMMAL			LCAL			LMTP5			LTOE			LMTP1			RPSIS			RASIS			RTH1			RTH2			RTH3			RTH4			RLFE			RMFE			RSH1			RSH2			RSH3			RSH4			RLMAL			RMMAL			RCAL			RMTP1			RTOE			RMTP5		
		X1	Y1	Z1	X2	Y2	Z2	X3	Y3	Z3	X4	Y4	Z4	X5	Y5	Z5	X6	Y6	Z6	X7	Y7	Z7	X8	Y8	Z8	X9	Y9	Z9	X10	Y10	Z10	X11	Y11	Z11	X12	Y12	Z12	X13	Y13	Z13	X14	Y14	Z14	X15	Y15	Z15	X16	Y16	Z16	X17	Y17	Z17	X18	Y18	Z18	X19	Y19	Z19	X20	Y20	Z20	X21	Y21	Z21	X22	Y22	Z22	X23	Y23	Z23	X24	Y24	Z24	X25	Y25	Z25	X26	Y26	Z26	X27	Y27	Z27	X28	Y28	Z28	X29	Y29	Z29	X30	Y30	Z30	X31	Y31	Z31	X32	Y32	Z32	X33	Y33	Z33	X34	Y34	Z34	X35	Y35	Z35	X36	Y36	Z36

583	2.32800	-395.41986	1030.54089	361.66495	-231.80028	986.45508	280.99701	-314.10464	800.15308	217.17174	-313.63425	721.68976	214.10641	-313.53876	645.51416	222.95541	-237.29373	722.29034	242.40996	-344.05725	524.43347	239.45050	-352.70438	502.88184	360.68634	-381.74805	337.89267	214.57051	-398.87064	292.95203	225.38657	-342.89703	341.99527	229.34961	-347.27655	296.34296	233.98759	-405.95923	109.51452	257.99454	-382.31705	127.40199	331.83191	-465.41003	47.14840	301.20007	-281.97009	41.16976	226.23384	-226.33658	52.78695	282.37250	-256.46460	41.75742	332.67459	-387.87888	1032.68066	462.54407	-231.37755	976.36963	533.83130	-283.36908	829.09460	594.04620	-286.67325	749.19897	595.47516	-294.07852	667.91199	589.45392	-220.01347	744.31482	553.84454	-322.91400	497.03409	555.03717	-337.46375	501.10239	443.76175	-394.22729	322.54593	577.90118	-367.06177	273.07874	579.95203	-333.00189	321.50589	571.56366	-337.27679	276.90359	568.87988	-401.84583	97.95753	540.30469	-377.82498	105.36507	461.70596	-453.60306	45.61997	498.65176	-244.96109	40.00704	464.02844	-218.99107	52.09112	511.51758	-263.90475	36.92768	573.11786
584	2.33200	-395.42657	1030.54102	361.70850	-231.79549	986.48895	281.03149	-314.09131	800.17163	217.19762	-313.65323	721.72314	214.14822	-313.53448	645.53186	223.00714	-237.32043	722.35217	242.50275	-344.04132	524.45569	239.48030	-352.69476	502.88434	360.70770	-381.76450	337.89481	214.60403	-398.95941	292.87256	225.50577	-342.90103	342.01666	229.38698	-347.26453	296.34277	233.99733	-405.97128	109.54700	258.03284	-382.38788	127.41155	331.88953	-465.45264	47.18729	301.22522	-282.00244	41.13390	226.28502	-226.36215	52.74993	282.53552	-256.51953	41.73452	332.80475	-387.89566	1032.66382	462.53778	-231.43292	976.36987	533.89288	-283.40033	829.08624	594.07422	-286.68726	749.19873	595.52087	-294.13397	667.95258	589.61420	-220.03473	744.30133	553.95056	-322.95627	496.99765	555.13385	-337.46625	501.11337	443.78333	-394.25153	322.53012	577.95795	-367.13910	273.05710	579.98352	-333.03876	321.50494	571.59772	-337.34860	276.84790	568.92322	-401.91888	97.96562	540.35980	-377.82196	105.39867	461.73962	-453.62906	45.61047	498.66910	-245.01768	39.94941	464.12527	-219.02008	52.05944	511.56998	-263.90158	36.90932	573.12317
585	2.33600	-395.45346	1030.57556	361.72684	-231.79254	986.49121	281.06754	-314.10422	800.16888	217.24188	-313.66708	721.71088	214.17526	-313.53131	645.54706	223.01631	-237.31172	722.31958	242.50764	-344.07520	524.47491	239.49690	-352.64026	502.85229	360.69263	-381.76291	337.88849	214.60623	-398.95657	292.90585	225.48405	-342.89740	342.00931	229.40137	-347.28482	296.34387	234.02696	-405.94516	109.55234	258.05338	-382.40057	127.36768	331.92975	-465.45102	47.22097	301.23438	-282.00653	41.11635	226.32600	-226.40538	52.70769	282.67764	-256.61206	41.68044	333.00320	-387.88834	1032.64148	462.60498	-231.45445	976.33771	533.96753	-283.45184	829.07159	594.09973	-286.75375	749.18597	595.55200	-294.15204	667.89612	589.67737	-220.09544	744.27191	554.03735	-323.00192	496.98734	555.27454	-337.44791	501.08649	443.79443	-394.29608	322.52625	577.98956	-367.13174	273.06287	580.03656	-333.05740	321.44043	571.67145	-337.37817	276.81821	568.98883	-401.92767	97.92062	540.40155	-377.81421	105.41540	461.74445	-453.12827	45.38530	498.62091	-245.10034	39.87831	464.23035	-219.08101	52.03966	511.66656	-263.94116	36.89620	573.17120
586	2.34000	-395.42355	1030.55896	361.74875	-231.78015	986.49969	281.07379	-314.11209	800.18256	217.25195	-313.63843	721.74701	214.19991	-313.50647	645.56927	222.99658	-237.28694	722.34528	242.52534	-344.08618	524.48956	239.51859	-352.59631	502.81747	360.73898	-381.69534	337.91248	214.59132	-398.94543	292.89761	225.52863	-342.87885	342.00830	229.42392	-347.23889	296.37210	234.00764	-405.95322	109.55924	258.05978	-382.34216	127.29595	331.94266	-465.43362	47.21830	301.24588	-282.01846	41.09263	226.35229	-226.40697	52.67090	282.79279	-256.63425	41.60742	333.14090	-387.84326	1032.59949	462.66745	-231.47636	976.27582	534.01270	-283.38815	829.01978	594.11542	-286.70798	749.15210	595.57001	-294.10974	667.83838	589.76978	-220.10095	744.23926	554.07971	-322.97043	496.93045	555.36890	-337.42758	501.10184	443.79306	-394.28287	322.48892	578.02631	-367.12167	273.01660	580.04932	-333.09976	321.39685	571.74524	-337.39093	276.75461	569.02618	-401.91205	97.89022	540.43396	-377.81564	105.40851	461.74414	-453.09891	45.38769	498.63812	-245.13225	39.83260	464.29590	-219.11954	51.97355	511.73135	-263.93091	36.84933	573.18597
587	2.34400	-395.44147	1030.54297	361.77710	-231.78688	986.50763	281.09467	-314.08881	800.18878	217.25185	-313.63721	721.71637	214.18625	-313.52774	645.56134	223.03085	-237.28256	722.35083	242.52652	-344.08499	524.50793	239.51801	-352.53104	502.78894	360.70746	-381.73560	337.93414	214.62454	-398.98669	292.86682	225.52676	-342.88052	342.03702	229.41550	-347.25217	296.38867	234.03299	-405.92664	109.57139	258.02338	-382.27499	127.23838	331.95264	-465.40866	47.17514	301.25293	-281.99173	41.07831	226.33858	-226.34384	52.65884	282.77405	-256.58981	41.57737	333.16797	-387.79166	1032.56299	462.65286	-231.44589	976.27106	533.99799	-283.33920	828.97101	594.13745	-286.61319	749.11401	595.57898	-294.04892	667.65051	589.73224	-220.09767	744.20251	554.12378	-322.87320	496.84732	555.39386	-337.41803	501.11917	443.78525	-394.16791	322.43805	578.01562	-367.03174	272.95108	580.06195	-333.09982	321.34784	571.76587	-337.38672	276.71350	569.05701	-401.81439	97.80185	540.39062	-377.84909	105.43009	461.74756	-453.07809	45.37431	498.63959	-245.11327	39.82426	464.30844	-219.07921	51.93886	511.74402	-263.92014	36.83201	573.19507
588	2.34800	-395.46942	1030.53271	361.82013	-231.77803	986.50189	281.08960	-314.07089	800.19751	217.23627	-313.62491	721.73242	214.16516	-313.50275	645.55359	223.01042	-237.31395	722.33795	242.52283	-344.07382	524.49847	239.49637	-352.47903	502.76431	360.71777	-381.73083	337.92432	214.62985	-398.95819	292.86572	225.48299	-342.87366	342.01181	229.42055	-347.21957	296.34637	234.03204	-405.92398	109.56148	258.01343	-382.18378	127.17653	331.91196	-465.41757	47.18047	301.25919	-281.97800	41.06788	226.32794	-226.34073	52.62097	282.82275	-256.56030	41.53729	333.23114	-387.77164	1032.52356	462.73801	-231.44229	976.19470	534.02893	-283.27356	828.93732	594.12354	-286.57269	749.05481	595.58502	-293.99390	667.59619	589.75952	-220.08531	744.17395	554.13470	-322.83774	496.71097	555.37512	-337.43976	501.09445	443.78790	-394.15866	322.37662	578.01434	-366.94531	272.89984	580.06689	-333.07928	321.28909	571.76239	-337.41867	276.66479	569.07434	-401.73544	97.72754	540.41425	-377.79395	105.43927	461.71637	-453.52078	45.52192	498.75763	-245.14136	39.75544	464.31458	-219.12035	51.89854	511.75131	-263.87689	36.78558	573.18542
589	2.35200	-395.43448	1030.51489	361.80695	-231.78821	986.50568	281.05774	-314.05923	800.18707	217.21512	-313.63110	721.74127	214.18161	-313.49905	645.56696	222.98079	-237.33498	722.34332	242.50505	-344.06656	524.50287	239.51457	-352.43671	502.75073	360.72571	-381.72543	337.93469	214.59166	-398.92068	292.91888	225.45813	-342.86145	342.03281	229.36781	-347.29031	296.36639	234.01807	-405.95135	109.57124	257.98459	-382.19177	127.16859	331.91150	-465.41956	47.16143	301.27274	-281.98956	41.08611	226.32465	-226.31624	52.56320	282.81168	-256.55511	41.46325	333.17288	-387.76163	1032.51379	462.72687	-231.45435	976.21112	534.05029	-283.24081	828.89722	594.12897	-286.57312	749.06421	595.58978	-293.97391	667.56891	589.81128	-220.09145	744.16150	554.13043	-322.82446	496.63037	555.36932	-337.44238	501.13028	443.77179	-394.10989	322.35480	578.01105	-366.95810	272.85181	580.08783	-333.11945	321.26941	571.79150	-337.40793	276.65549	569.08691	-401.71408	97.72108	540.44775	-377.80435	105.43552	461.67752	-453.53906	45.52524	498.78412	-245.12849	39.77998	464.27814	-219.13786	51.87293	511.74857	-263.88190	36.78204	573.18341
590	2.35600	-395.45001	1030.48303	361.84573	-231.81648	986.48120	281.08145	-314.04251	800.18781	217.21400	-313.61636	721.74939	214.15669	-313.49670	645.55200	223.00340	-237.28156	722.30957	242.46980	-344.04959	524.49286	239.50713	-352.41714	502.72519	360.72018	-381.71838	337.91208	214.59193	-398.95053	292.85428	225.45195	-342.87891	341.99881	229.37123	-347.23798	296.34564	233.98576	-405.94415	109.54837	257.97311	-382.27237	127.21281	331.94620	-465.40176	47.14314	301.23627	-282.00223	41.04583	226.30829	-226.34019	52.53107	282.79861	-256.59216	41.47320	333.12274	-387.77017	1032.51038	462.76144	-231.49185	976.19739	534.08197	-283.29294	828.94189	594.17914	-286.62015	749.08099	595.61823	-294.00558	667.60468	589.84674	-220.11868	744.13470	554.12445	-322.86029	496.74185	555.44366	-337.42459	501.12164	443.76712	-394.14902	322.36429	578.03180	-367.01590	272.90216	580.09283	-333.16974	321.25797	571.80670	-337.45593	276.63272	569.07758	-401.74783	97.71941	540.46246	-377.82300	105.43288	461.67664	-453.54300	45.54389	498.77341	-245.14305	39.73856	464.28073	-219.12129	51.87988	511.72089	-263.94672	36.79642	573.18005
591	2.36000	-395.41855	1030.47559	361.84204	-231.79630	986.50543	281.05048	-314.04895	800.20471	217.22849	-313.64740	721.74554	214.18993	-313.51462	645.55322	222.99347	-237.29414	722.33362	242.49899	-344.01462	524.47314	239.49327	-352.39151	502.73346	360.72241	-381.74457	337.92007	214.59439	-398.87390	292.95383	225.38499	-342.87152	341.99399	229.34938	-347.25485	296.35498	233.99010	-405.94998	109.55022	257.95911	-382.31723	127.25951	331.94025	-465.40009	47.12058	301.23105	-282.01987	41.08212	226.28404	-226.34166	52.54499	282.71515	-256.64307	41.41616	333.09906	-387.77066	1032.53149	462.77167	-231.54910	976.22614	534.09595	-283.33701	828.97034	594.15778	-286.62289	749.14417	595.64117	-294.08209	667.70013	589.90076	-220.12317	744.16638	554.10236	-322.93292	496.82181	555.50580	-337.45761	501.14441	443.80054	-394.17618	322.40814	578.04456	-367.08490	272.92575	580.11151	-333.19601	321.30420	571.81598	-337.49228	276.67401	569.09943	-401.85272	97.79629	540.46619	-377.80704	105.42166	461.66443	-453.06110	45.33883	498.68085	-245.17368	39.76805	464.27396	-219.15283	51.90158	511.69879	-263.95828	36.82369	573.17731
